<svg width="50" height="50" viewBox="0 0 184 100" fill="none" xmlns="http://www.w3.org/2000/svg">
<g clip-path="url(#clip0_9_133)">
<path fill-rule="evenodd" clip-rule="evenodd" d="M52.5099 0.0873269C47.1783 0.464136 42.0435 2.1889 37.7207 5.05471C35.9193 6.24896 34.8607 7.08978 33.4462 8.44975L32.3661 9.48825L30.3139 9.54907C27.259 9.6396 24.6239 10.0632 21.8463 10.9102C14.322 13.205 7.73212 18.2797 3.74668 24.8485C0.914465 29.5167 -0.494625 34.6242 -0.826645 41.4254C-0.878598 42.491 -0.892099 55.541 -0.85678 70.5469L-0.79273 97.7377H11.3583H23.5094V64.6475C23.5094 33.4543 23.5206 31.4528 23.705 29.7339C24.5985 21.402 26.8735 15.7749 31.4772 10.5097L32.2581 9.61654L33.8455 9.67531C43.7668 10.0429 51.9319 14.3418 56.9884 21.8602C59.8414 26.1024 61.6692 31.2677 62.3931 37.135C62.7791 40.2622 62.7984 41.5959 62.8659 69.7961L62.9328 97.7377H75.0838H87.2348L87.267 73.2284C87.3047 44.5294 87.2188 38.5758 86.6878 33.1127C85.8007 23.9843 82.9598 16.4632 78.1804 10.5891C77.2891 9.49372 75.0158 7.25164 73.8957 6.36341C68.048 1.72596 60.532 -0.479657 52.5099 0.0873269ZM94.9586 29.1708C94.9598 58.791 95.0102 62.001 95.5605 67.4363C96.574 77.4477 100.204 85.844 106.023 91.6319C110.536 96.1224 115.783 98.6914 122.606 99.7519C124.61 100.063 129.648 100.086 131.627 99.7933C133.752 99.4784 135.413 99.0943 137.251 98.4929C141.506 97.1003 145.132 94.9565 148.638 91.7596L149.988 90.5286L151.641 90.5135C161.432 90.424 170.999 85.5023 176.901 77.5189C181.018 71.951 182.832 65.9916 183.072 57.2469C183.113 55.7424 183.134 42.7703 183.118 28.42L183.089 2.32866H170.888H158.687L158.651 35.9819C158.624 60.8097 158.581 69.8883 158.488 70.6005C158.048 73.9723 157.691 75.8513 157.104 77.8943C155.837 82.2976 153.795 86.0422 150.775 89.5023L149.988 90.4038L148.044 90.3489C140.279 90.1293 133.05 87.0376 128.097 81.8174C123.503 76.9757 120.628 70.2877 119.748 62.395C119.409 59.3574 119.357 55.498 119.295 29.0099L119.233 2.32866H107.095H94.9575L94.9586 29.1708Z" fill="white"/>
</g>
<defs>
<clipPath id="clip0_9_133">
<rect width="184" height="100" fill="white"/>
</clipPath>
</defs>
</svg>
